# File created by Blade
# Date/Time:  Thu Sep 25 19:32:06 2014
# Frame Rate: 120.000 fps
#------------------------------------------------------
:FULLY-SPECIFIED
:DEGREES
2096
root 6.250850 31.427293 -2.418427 4.324823 -18.517253 -14.683062
Spine -15.441724 7.693387 -40.904441
Head 9.590729 36.940089 -12.793401
LeftShoulder -6.780885 23.681985 3.586338
LeftArm 13.126425 17.367949 -55.350775
LeftForeArm 3.374709 -0.000000 8.850038
LeftHand -26.887296 -0.000000 -4.873340
LeftHandThumb1 -26.253704 0.000000 33.147579
RightShoulder -18.439801 24.231073 -53.188363
RightArm 29.386205 39.008300 18.666400
RightForeArm 27.650811 -0.000000 31.385013
RightHand 5.480004 0.000000 -3.121990
RightHandThumb1 -24.326973 -0.000000 -32.862282
LeftUpLeg -18.325490 5.173608 7.544129
LeftLeg 45.540216 -0.000000 -0.000000
LeftFoot -36.199519 17.305037 -21.404885
LeftToeBase 8.766645 -0.000000 -0.000000
RightUpLeg 11.195876 -1.645970 28.310515
RightLeg 0.712592 -0.000000 -0.000000
RightFoot -8.646975 3.119707 -4.996279
RightToeBase -4.138462 -0.000000 0.000000
2097
root 6.246125 31.427516 -2.418418 4.335551 -18.570405 -14.681822
Spine -15.431204 7.684162 -40.890473
Head 9.509423 36.952267 -12.843263
LeftShoulder -6.791968 23.664634 3.574207
LeftArm 13.121818 17.408124 -55.325815
LeftForeArm 3.306750 -0.000000 8.851675
LeftHand -26.904955 0.000000 -4.766267
LeftHandThumb1 -26.253704 0.000000 33.147579
RightShoulder -18.441990 24.296592 -53.217411
RightArm 29.324439 38.956248 18.642695
RightForeArm 27.742672 -0.000000 31.399581
RightHand 5.523798 -0.000000 -3.190201
RightHandThumb1 -24.326973 -0.000000 -32.862282
LeftUpLeg -18.308073 5.165854 7.543962
LeftLeg 45.511835 -0.000000 -0.000000
LeftFoot -36.222495 17.329283 -21.499751
LeftToeBase 8.685014 -0.000000 -0.000000
RightUpLeg 11.203187 -1.628351 28.305225
RightLeg 0.723207 -0.000000 -0.000000
RightFoot -8.649828 3.157022 -4.989216
RightToeBase -4.114172 -0.000000 0.000000
2098
root 6.241355 31.427635 -2.417854 4.357459 -18.619835 -14.676435
Spine -15.436987 7.656837 -40.889215
Head 9.456786 36.963436 -12.851200
LeftShoulder -6.814775 23.683625 3.567394
LeftArm 13.155299 17.373864 -55.309032
LeftForeArm 3.306481 0.000000 8.837137
LeftHand -26.882672 -0.000000 -4.605312
LeftHandThumb1 -26.253704 0.000000 33.147579
RightShoulder -18.514487 24.508195 -53.390945
RightArm 29.314570 38.844666 18.852056
RightForeArm 27.627606 -0.000000 31.393641
RightHand 5.517577 -0.000000 -3.180726
RightHandThumb1 -24.326973 -0.000000 -32.862282
LeftUpLeg -18.307018 5.159159 7.538566
LeftLeg 45.487751 -0.000000 -0.000000
LeftFoot -36.259786 17.526328 -21.335230
LeftToeBase 8.929563 -0.000000 -0.000000
RightUpLeg 11.200706 -1.618452 28.293440
RightLeg 0.729168 -0.000000 -0.000000
RightFoot -8.652388 3.198856 -5.006352
RightToeBase -4.101931 -0.000000 0.000000
2099
root 6.236476 31.427809 -2.417753 4.370347 -18.676138 -14.670852
Spine -15.445382 7.650162 -40.894258
Head 9.439926 36.944699 -12.827657
LeftShoulder -6.786431 23.674874 3.576751
LeftArm 13.129310 17.448980 -55.275077
LeftForeArm 3.175816 0.000000 8.862063
LeftHand -26.873608 -0.000000 -4.696581
LeftHandThumb1 -26.253704 0.000000 33.147579
RightShoulder -18.513772 24.537821 -53.412411
RightArm 29.277563 38.792292 18.834241
RightForeArm 27.572193 0.000000 31.383097
RightHand 5.502404 -0.000000 -3.259806
RightHandThumb1 -24.326973 -0.000000 -32.862282
LeftUpLeg -18.298537 5.171898 7.531472
LeftLeg 45.477576 -0.000000 -0.000000
LeftFoot -36.272427 17.428418 -21.541330
LeftToeBase 8.703689 -0.000000 -0.000000
RightUpLeg 11.213115 -1.593442 28.286431
RightLeg 0.727357 -0.000000 -0.000000
RightFoot -8.658925 3.225164 -5.005108
RightToeBase -4.056130 -0.000000 0.000000
2100
root 6.231487 31.427841 -2.417206 4.380449 -18.736997 -14.660206
Spine -15.452437 7.636815 -40.901935
Head 9.402630 36.954385 -12.821262
LeftShoulder -6.783521 23.691615 3.583514
LeftArm 13.151547 17.555740 -55.217961
LeftForeArm 2.969643 -0.000000 8.889963
LeftHand -27.000553 -0.000000 -4.292999
LeftHandThumb1 -26.253704 0.000000 33.147579
RightShoulder -18.506985 24.562306 -53.415073
RightArm 29.197773 38.682119 18.706694
RightForeArm 27.590887 -0.000000 31.360072
RightHand 5.497233 -0.000000 -3.284232
RightHandThumb1 -24.326973 -0.000000 -32.862282
LeftUpLeg -18.288263 5.173334 7.518505
LeftLeg 45.463233 -0.000000 -0.000000
LeftFoot -36.291092 17.512181 -21.480390
LeftToeBase 8.815481 -0.000000 -0.000000
RightUpLeg 11.224512 -1.588782 28.268712
RightLeg 0.736107 -0.000000 -0.000000
RightFoot -8.664444 3.264458 -5.001532
RightToeBase -4.058756 -0.000000 0.000000
2101
root 6.226599 31.428033 -2.416970 4.394894 -18.810656 -14.648607
Spine -15.478189 7.634173 -40.921312
Head 9.391125 36.961337 -12.785446
LeftShoulder -6.777284 23.683328 3.590710
LeftArm 13.144956 17.667854 -55.157122
LeftForeArm 2.858064 -0.000000 8.912307
LeftHand -26.989720 -0.000000 -4.419300
LeftHandThumb1 -26.253704 0.000000 33.147579
RightShoulder -18.509511 24.529054 -53.398518
RightArm 29.200104 38.640146 18.631818
RightForeArm 27.609025 0.000000 31.287958
RightHand 5.465098 -0.000000 -3.184182
RightHandThumb1 -24.326973 -0.000000 -32.862282
LeftUpLeg -18.278676 5.186158 7.506848
LeftLeg 45.444107 -0.000000 -0.000000
LeftFoot -36.324751 17.674644 -21.390726
LeftToeBase 8.994900 -0.000000 -0.000000
RightUpLeg 11.234458 -1.560490 28.250798
RightLeg 0.744005 -0.000000 -0.000000
RightFoot -8.670028 3.307773 -4.982168
RightToeBase -4.100974 -0.000000 0.000000
2102
root 6.220318 31.428033 -2.416851 4.409465 -18.877701 -14.647492
Spine -15.500246 7.631956 -40.928917
Head 9.375909 36.967353 -12.756529
LeftShoulder -6.778204 23.672116 3.595758
LeftArm 13.152182 17.783484 -55.091016
LeftForeArm 2.797739 0.000000 8.926769
LeftHand -27.002959 0.000000 -4.539638
LeftHandThumb1 -26.253704 0.000000 33.147579
RightShoulder -18.509402 24.502598 -53.395472
RightArm 29.148160 38.554495 18.528066
RightForeArm 27.589574 -0.000000 31.268372
RightHand 5.463817 -0.000000 -3.103631
RightHandThumb1 -24.326973 -0.000000 -32.862282
LeftUpLeg -18.270144 5.177974 7.511648
LeftLeg 45.435875 -0.000000 -0.000000
LeftFoot -36.364571 17.697178 -21.464973
LeftToeBase 9.051545 -0.000000 -0.000000
RightUpLeg 11.247259 -1.564244 28.240373
RightLeg 0.751227 -0.000000 -0.000000
RightFoot -8.672785 3.368174 -5.004613
RightToeBase -4.067784 -0.000000 0.000000
2103
root 6.213818 31.427377 -2.416650 4.417949 -18.949077 -14.646974
Spine -15.516222 7.617067 -40.928672
Head 9.339812 36.987081 -12.772821
LeftShoulder -6.787035 23.659197 3.593869
LeftArm 13.134055 17.845587 -55.047307
LeftForeArm 2.802639 -0.000000 8.958337
LeftHand -27.020038 0.000000 -4.557156
LeftHandThumb1 -26.253704 0.000000 33.147579
RightShoulder -18.509451 24.491306 -53.403556
RightArm 29.146413 38.517764 18.506381
RightForeArm 27.498595 -0.000000 31.239037
RightHand 5.468671 -0.000000 -3.029164
RightHandThumb1 -24.326973 -0.000000 -32.862282
LeftUpLeg -18.258717 5.207363 7.501254
LeftLeg 45.436579 -0.000000 -0.000000
LeftFoot -36.432767 17.745473 -21.579744
LeftToeBase 9.090556 -0.000000 -0.000000
RightUpLeg 11.265640 -1.560777 28.231559
RightLeg 0.761577 -0.000000 -0.000000
RightFoot -8.672242 3.432817 -4.992486
RightToeBase -4.067454 -0.000000 0.000000
2104
root 6.207991 31.426873 -2.417071 4.427874 -19.018385 -14.643339
Spine -15.533763 7.610957 -40.938326
Head 9.317276 36.989364 -12.776757
LeftShoulder -6.779894 23.687634 3.600388
LeftArm 13.176688 17.911826 -54.991173
LeftForeArm 2.767694 -0.000000 8.937505
LeftHand -26.954637 -0.000000 -4.574777
LeftHandThumb1 -26.253704 0.000000 33.147579
RightShoulder -18.516048 24.502944 -53.409997
RightArm 29.084261 38.385957 18.396280
RightForeArm 27.403945 -0.000000 31.251115
RightHand 5.430587 -0.000000 -3.172379
RightHandThumb1 -24.326973 -0.000000 -32.862282
LeftUpLeg -18.253652 5.181887 7.511366
LeftLeg 45.444986 -0.000000 -0.000000
LeftFoot -36.405194 17.784752 -21.541193
LeftToeBase 9.013676 -0.000000 -0.000000
RightUpLeg 11.281145 -1.545387 28.224816
RightLeg 0.770978 -0.000000 -0.000000
RightFoot -8.686629 3.449304 -5.025673
RightToeBase -4.063908 -0.000000 0.000000
